<svg xmlns="http://www.w3.org/2000/svg" xmlns:xlink="http://www.w3.org/1999/xlink" width="500" zoomAndPan="magnify" viewBox="0 0 375 374.999991" height="500" preserveAspectRatio="xMidYMid meet" version="1.0"><defs><g/><clipPath id="759b3d6dbd"><path d="M 33.226562 96.691406 L 87.125 96.691406 L 87.125 183.710938 L 33.226562 183.710938 Z M 33.226562 96.691406 " clip-rule="nonzero"/></clipPath><clipPath id="7146f87ad7"><path d="M 94.59375 96.691406 L 148.492188 96.691406 L 148.492188 183.710938 L 94.59375 183.710938 Z M 94.59375 96.691406 " clip-rule="nonzero"/></clipPath><clipPath id="b376344db8"><path d="M 155.992188 96.691406 L 209.890625 96.691406 L 209.890625 183.710938 L 155.992188 183.710938 Z M 155.992188 96.691406 " clip-rule="nonzero"/></clipPath><clipPath id="7b111e7394"><path d="M 217.390625 96.691406 L 271.289062 96.691406 L 271.289062 183.710938 L 217.390625 183.710938 Z M 217.390625 96.691406 " clip-rule="nonzero"/></clipPath><clipPath id="10e0a210b8"><path d="M 279.199219 96.691406 L 333.097656 96.691406 L 333.097656 183.710938 L 279.199219 183.710938 Z M 279.199219 96.691406 " clip-rule="nonzero"/></clipPath><clipPath id="002742db09"><path d="M 33.226562 192.90625 L 87.125 192.90625 L 87.125 279.925781 L 33.226562 279.925781 Z M 33.226562 192.90625 " clip-rule="nonzero"/></clipPath><clipPath id="182f33389c"><path d="M 94.59375 192.90625 L 148.492188 192.90625 L 148.492188 279.925781 L 94.59375 279.925781 Z M 94.59375 192.90625 " clip-rule="nonzero"/></clipPath><clipPath id="e423433cb6"><path d="M 155.992188 192.90625 L 209.890625 192.90625 L 209.890625 279.925781 L 155.992188 279.925781 Z M 155.992188 192.90625 " clip-rule="nonzero"/></clipPath><clipPath id="3134b2936e"><path d="M 217.390625 192.90625 L 271.289062 192.90625 L 271.289062 279.925781 L 217.390625 279.925781 Z M 217.390625 192.90625 " clip-rule="nonzero"/></clipPath><clipPath id="20fb08ab0d"><path d="M 279.199219 192.90625 L 333.097656 192.90625 L 333.097656 279.925781 L 279.199219 279.925781 Z M 279.199219 192.90625 " clip-rule="nonzero"/></clipPath><clipPath id="cc7cc73f74"><path d="M 283.128906 227 L 298 227 L 298 240 L 283.128906 240 Z M 283.128906 227 " clip-rule="nonzero"/></clipPath><clipPath id="24cc6f5c87"><path d="M 315 227 L 330.378906 227 L 330.378906 240 L 315 240 Z M 315 227 " clip-rule="nonzero"/></clipPath></defs><g clip-path="url(#759b3d6dbd)"><path fill="#000000" d="M 33.226562 96.691406 L 87.125 96.691406 L 87.125 183.644531 L 33.226562 183.644531 Z M 33.226562 96.691406 " fill-opacity="1" fill-rule="nonzero"/></g><g clip-path="url(#7146f87ad7)"><path fill="#000000" d="M 94.59375 96.691406 L 148.492188 96.691406 L 148.492188 183.644531 L 94.59375 183.644531 Z M 94.59375 96.691406 " fill-opacity="1" fill-rule="nonzero"/></g><g clip-path="url(#b376344db8)"><path fill="#000000" d="M 155.992188 96.691406 L 209.890625 96.691406 L 209.890625 183.644531 L 155.992188 183.644531 Z M 155.992188 96.691406 " fill-opacity="1" fill-rule="nonzero"/></g><g clip-path="url(#7b111e7394)"><path fill="#000000" d="M 217.390625 96.691406 L 271.289062 96.691406 L 271.289062 183.644531 L 217.390625 183.644531 Z M 217.390625 96.691406 " fill-opacity="1" fill-rule="nonzero"/></g><g clip-path="url(#10e0a210b8)"><path fill="#000000" d="M 279.199219 96.691406 L 333.097656 96.691406 L 333.097656 183.644531 L 279.199219 183.644531 Z M 279.199219 96.691406 " fill-opacity="1" fill-rule="nonzero"/></g><g clip-path="url(#002742db09)"><path fill="#000000" d="M 33.226562 192.90625 L 87.125 192.90625 L 87.125 279.859375 L 33.226562 279.859375 Z M 33.226562 192.90625 " fill-opacity="1" fill-rule="nonzero"/></g><g clip-path="url(#182f33389c)"><path fill="#000000" d="M 94.59375 192.90625 L 148.492188 192.90625 L 148.492188 279.859375 L 94.59375 279.859375 Z M 94.59375 192.90625 " fill-opacity="1" fill-rule="nonzero"/></g><g clip-path="url(#e423433cb6)"><path fill="#000000" d="M 155.992188 192.90625 L 209.890625 192.90625 L 209.890625 279.859375 L 155.992188 279.859375 Z M 155.992188 192.90625 " fill-opacity="1" fill-rule="nonzero"/></g><g clip-path="url(#3134b2936e)"><path fill="#000000" d="M 217.390625 192.90625 L 271.289062 192.90625 L 271.289062 279.859375 L 217.390625 279.859375 Z M 217.390625 192.90625 " fill-opacity="1" fill-rule="nonzero"/></g><g clip-path="url(#20fb08ab0d)"><path fill="#000000" d="M 279.199219 192.90625 L 333.097656 192.90625 L 333.097656 279.859375 L 279.199219 279.859375 Z M 279.199219 192.90625 " fill-opacity="1" fill-rule="nonzero"/></g><g clip-path="url(#cc7cc73f74)"><path fill="#ffffff" d="M 290.898438 237.511719 L 297.285156 237.511719 C 296.023438 235.035156 293.871094 231.855469 290.222656 228.480469 C 289.511719 227.820312 288.554688 227.445312 287.601562 227.445312 C 286.59375 227.445312 285.609375 227.832031 284.675781 228.601562 C 281.753906 230.996094 283.746094 233.953125 284.425781 234.804688 C 285.324219 235.925781 286.265625 237.507812 287.09375 239.390625 C 287.972656 238.25 289.351562 237.511719 290.898438 237.511719 Z M 290.898438 237.511719 " fill-opacity="1" fill-rule="nonzero"/></g><g clip-path="url(#24cc6f5c87)"><path fill="#ffffff" d="M 328.574219 228.601562 C 327.640625 227.832031 326.65625 227.445312 325.648438 227.445312 C 324.695312 227.445312 323.738281 227.820312 323.027344 228.480469 C 319.378906 231.855469 317.226562 235.035156 315.964844 237.511719 L 322.351562 237.511719 C 323.898438 237.511719 325.277344 238.25 326.15625 239.390625 C 326.984375 237.507812 327.925781 235.925781 328.824219 234.804688 C 329.503906 233.953125 331.496094 230.996094 328.574219 228.601562 Z M 328.574219 228.601562 " fill-opacity="1" fill-rule="nonzero"/></g><path fill="#ffffff" d="M 325.175781 248.65625 L 325.175781 242.308594 C 325.175781 240.75 323.90625 239.484375 322.351562 239.484375 L 290.898438 239.484375 C 289.34375 239.484375 288.078125 240.75 288.078125 242.308594 L 288.078125 248.65625 C 288.078125 250.210938 289.34375 251.480469 290.898438 251.480469 L 322.351562 251.480469 C 323.90625 251.480469 325.175781 250.210938 325.175781 248.65625 Z M 325.175781 248.65625 " fill-opacity="1" fill-rule="nonzero"/><path fill="#ffffff" d="M 318.804688 253.453125 L 319.269531 257.140625 L 321.644531 257.140625 L 322.113281 253.453125 Z M 318.804688 253.453125 " fill-opacity="1" fill-rule="nonzero"/><path fill="#ffffff" d="M 291.136719 253.453125 L 291.605469 257.140625 L 293.980469 257.140625 L 294.445312 253.453125 Z M 291.136719 253.453125 " fill-opacity="1" fill-rule="nonzero"/><path fill="#ffffff" d="M 313.761719 237.511719 C 315.113281 234.574219 317.496094 230.910156 321.6875 227.03125 C 322.277344 226.484375 322.964844 226.074219 323.703125 225.808594 C 321.046875 219.890625 314.394531 215.683594 306.625 215.683594 C 298.855469 215.683594 292.203125 219.890625 289.546875 225.808594 C 290.285156 226.070312 290.972656 226.484375 291.5625 227.03125 C 295.753906 230.910156 298.136719 234.574219 299.488281 237.511719 Z M 313.761719 237.511719 " fill-opacity="1" fill-rule="nonzero"/><g fill="#ffa500" fill-opacity="1"><g transform="translate(41.846354, 160.827001)"><g><path d="M 20.640625 -37.546875 C 22.929688 -37.546875 24.8125 -37.207031 26.28125 -36.53125 C 27.757812 -35.851562 29.070312 -35.0625 30.21875 -34.15625 C 30.90625 -33.644531 31.429688 -33.585938 31.796875 -33.984375 C 32.160156 -34.378906 32.410156 -35.320312 32.546875 -36.8125 L 33.75 -36.8125 C 33.675781 -35.457031 33.625 -33.816406 33.59375 -31.890625 C 33.5625 -29.972656 33.546875 -27.421875 33.546875 -24.234375 L 32.34375 -24.234375 C 32.164062 -25.828125 31.9375 -27.1875 31.65625 -28.3125 C 31.382812 -29.4375 31.003906 -30.429688 30.515625 -31.296875 C 30.035156 -32.171875 29.34375 -32.953125 28.4375 -33.640625 C 27.570312 -34.503906 26.566406 -35.144531 25.421875 -35.5625 C 24.285156 -35.976562 23.09375 -36.1875 21.84375 -36.1875 C 19.96875 -36.1875 18.367188 -35.691406 17.046875 -34.703125 C 15.734375 -33.722656 14.671875 -32.378906 13.859375 -30.671875 C 13.046875 -28.972656 12.445312 -27.054688 12.0625 -24.921875 C 11.675781 -22.796875 11.484375 -20.585938 11.484375 -18.296875 C 11.484375 -15.972656 11.679688 -13.742188 12.078125 -11.609375 C 12.484375 -9.484375 13.109375 -7.585938 13.953125 -5.921875 C 14.804688 -4.265625 15.910156 -2.945312 17.265625 -1.96875 C 18.617188 -1 20.210938 -0.515625 22.046875 -0.515625 C 23.191406 -0.515625 24.34375 -0.726562 25.5 -1.15625 C 26.664062 -1.59375 27.664062 -2.226562 28.5 -3.0625 C 29.851562 -4.101562 30.769531 -5.394531 31.25 -6.9375 C 31.738281 -8.476562 32.101562 -10.535156 32.34375 -13.109375 L 33.546875 -13.109375 C 33.546875 -9.804688 33.5625 -7.140625 33.59375 -5.109375 C 33.625 -3.085938 33.675781 -1.382812 33.75 0 L 32.546875 0 C 32.410156 -1.488281 32.175781 -2.421875 31.84375 -2.796875 C 31.519531 -3.179688 30.976562 -3.132812 30.21875 -2.65625 C 28.925781 -1.75 27.5625 -0.957031 26.125 -0.28125 C 24.6875 0.394531 22.84375 0.734375 20.59375 0.734375 C 16.914062 0.734375 13.695312 -0.0078125 10.9375 -1.5 C 8.1875 -3 6.046875 -5.148438 4.515625 -7.953125 C 2.992188 -10.765625 2.234375 -14.144531 2.234375 -18.09375 C 2.234375 -21.976562 3.019531 -25.375 4.59375 -28.28125 C 6.175781 -31.195312 8.34375 -33.46875 11.09375 -35.09375 C 13.851562 -36.726562 17.035156 -37.546875 20.640625 -37.546875 Z M 20.640625 -37.546875 "/></g></g></g><g fill="#ffa500" fill-opacity="1"><g transform="translate(101.080807, 160.827001)"><g><path d="M 20.640625 -37.546875 C 24.316406 -37.546875 27.53125 -36.800781 30.28125 -35.3125 C 33.039062 -33.820312 35.179688 -31.679688 36.703125 -28.890625 C 38.234375 -26.097656 39 -22.707031 39 -18.71875 C 39 -14.832031 38.21875 -11.429688 36.65625 -8.515625 C 35.09375 -5.609375 32.914062 -3.335938 30.125 -1.703125 C 27.34375 -0.078125 24.164062 0.734375 20.59375 0.734375 C 16.914062 0.734375 13.695312 -0.0078125 10.9375 -1.5 C 8.1875 -3 6.046875 -5.148438 4.515625 -7.953125 C 2.992188 -10.765625 2.234375 -14.144531 2.234375 -18.09375 C 2.234375 -21.976562 3.019531 -25.375 4.59375 -28.28125 C 6.175781 -31.195312 8.34375 -33.46875 11.09375 -35.09375 C 13.851562 -36.726562 17.035156 -37.546875 20.640625 -37.546875 Z M 20.4375 -36.609375 C 18.5 -36.609375 16.804688 -35.828125 15.359375 -34.265625 C 13.921875 -32.703125 12.8125 -30.550781 12.03125 -27.8125 C 11.257812 -25.082031 10.875 -21.910156 10.875 -18.296875 C 10.875 -14.628906 11.3125 -11.429688 12.1875 -8.703125 C 13.070312 -5.984375 14.269531 -3.882812 15.78125 -2.40625 C 17.289062 -0.9375 18.960938 -0.203125 20.796875 -0.203125 C 22.742188 -0.203125 24.4375 -0.984375 25.875 -2.546875 C 27.3125 -4.109375 28.421875 -6.265625 29.203125 -9.015625 C 29.984375 -11.773438 30.375 -14.941406 30.375 -18.515625 C 30.375 -22.222656 29.929688 -25.425781 29.046875 -28.125 C 28.160156 -30.832031 26.960938 -32.921875 25.453125 -34.390625 C 23.941406 -35.867188 22.269531 -36.609375 20.4375 -36.609375 Z M 20.4375 -36.609375 "/></g></g></g><g fill="#ffa500" fill-opacity="1"><g transform="translate(165.183171, 160.827001)"><g><path d="M 34.890625 -36.8125 L 34.890625 -35.78125 C 33.785156 -35.632812 32.945312 -35.34375 32.375 -34.90625 C 31.800781 -34.476562 31.425781 -33.796875 31.25 -32.859375 C 31.070312 -31.921875 30.984375 -30.601562 30.984375 -28.90625 L 30.984375 -15.125 C 30.984375 -12.875 30.828125 -10.8125 30.515625 -8.9375 C 30.210938 -7.070312 29.660156 -5.460938 28.859375 -4.109375 C 27.960938 -2.617188 26.644531 -1.4375 24.90625 -0.5625 C 23.175781 0.300781 20.972656 0.734375 18.296875 0.734375 C 16.703125 0.734375 15.070312 0.550781 13.40625 0.1875 C 11.75 -0.175781 10.257812 -0.863281 8.9375 -1.875 C 7.832031 -2.8125 6.984375 -3.867188 6.390625 -5.046875 C 5.804688 -6.222656 5.410156 -7.613281 5.203125 -9.21875 C 4.992188 -10.832031 4.890625 -12.75 4.890625 -14.96875 L 4.890625 -31.296875 C 4.890625 -32.585938 4.789062 -33.535156 4.59375 -34.140625 C 4.40625 -34.742188 4.035156 -35.15625 3.484375 -35.375 C 2.929688 -35.601562 2.097656 -35.738281 0.984375 -35.78125 L 0.984375 -36.8125 C 1.847656 -36.78125 3.015625 -36.742188 4.484375 -36.703125 C 5.960938 -36.671875 7.5 -36.65625 9.09375 -36.65625 C 10.6875 -36.65625 12.21875 -36.671875 13.6875 -36.703125 C 15.164062 -36.742188 16.394531 -36.78125 17.375 -36.8125 L 17.375 -35.78125 C 16.1875 -35.738281 15.289062 -35.601562 14.6875 -35.375 C 14.082031 -35.15625 13.675781 -34.742188 13.46875 -34.140625 C 13.257812 -33.535156 13.15625 -32.585938 13.15625 -31.296875 L 13.15625 -11.703125 C 13.15625 -9.960938 13.265625 -8.425781 13.484375 -7.09375 C 13.710938 -5.757812 14.09375 -4.648438 14.625 -3.765625 C 15.164062 -2.878906 15.90625 -2.210938 16.84375 -1.765625 C 17.78125 -1.316406 18.941406 -1.09375 20.328125 -1.09375 C 22.753906 -1.09375 24.648438 -1.664062 26.015625 -2.8125 C 27.390625 -3.957031 28.363281 -5.539062 28.9375 -7.5625 C 29.507812 -9.59375 29.796875 -11.925781 29.796875 -14.5625 L 29.796875 -28.28125 C 29.796875 -30.1875 29.671875 -31.648438 29.421875 -32.671875 C 29.179688 -33.703125 28.707031 -34.441406 28 -34.890625 C 27.289062 -35.335938 26.207031 -35.632812 24.75 -35.78125 L 24.75 -36.8125 C 25.40625 -36.78125 26.269531 -36.742188 27.34375 -36.703125 C 28.425781 -36.671875 29.4375 -36.65625 30.375 -36.65625 C 31.195312 -36.65625 32.015625 -36.671875 32.828125 -36.703125 C 33.648438 -36.742188 34.335938 -36.78125 34.890625 -36.8125 Z M 34.890625 -36.8125 "/></g></g></g><g fill="#ffa500" fill-opacity="1"><g transform="translate(226.489984, 160.827001)"><g><path d="M 20.640625 -37.546875 C 22.929688 -37.546875 24.8125 -37.207031 26.28125 -36.53125 C 27.757812 -35.851562 29.070312 -35.0625 30.21875 -34.15625 C 30.90625 -33.644531 31.429688 -33.585938 31.796875 -33.984375 C 32.160156 -34.378906 32.410156 -35.320312 32.546875 -36.8125 L 33.75 -36.8125 C 33.675781 -35.457031 33.625 -33.816406 33.59375 -31.890625 C 33.5625 -29.972656 33.546875 -27.421875 33.546875 -24.234375 L 32.34375 -24.234375 C 32.164062 -25.828125 31.9375 -27.1875 31.65625 -28.3125 C 31.382812 -29.4375 31.003906 -30.429688 30.515625 -31.296875 C 30.035156 -32.171875 29.34375 -32.953125 28.4375 -33.640625 C 27.570312 -34.503906 26.566406 -35.144531 25.421875 -35.5625 C 24.285156 -35.976562 23.09375 -36.1875 21.84375 -36.1875 C 19.96875 -36.1875 18.367188 -35.691406 17.046875 -34.703125 C 15.734375 -33.722656 14.671875 -32.378906 13.859375 -30.671875 C 13.046875 -28.972656 12.445312 -27.054688 12.0625 -24.921875 C 11.675781 -22.796875 11.484375 -20.585938 11.484375 -18.296875 C 11.484375 -15.972656 11.679688 -13.742188 12.078125 -11.609375 C 12.484375 -9.484375 13.109375 -7.585938 13.953125 -5.921875 C 14.804688 -4.265625 15.910156 -2.945312 17.265625 -1.96875 C 18.617188 -1 20.210938 -0.515625 22.046875 -0.515625 C 23.191406 -0.515625 24.34375 -0.726562 25.5 -1.15625 C 26.664062 -1.59375 27.664062 -2.226562 28.5 -3.0625 C 29.851562 -4.101562 30.769531 -5.394531 31.25 -6.9375 C 31.738281 -8.476562 32.101562 -10.535156 32.34375 -13.109375 L 33.546875 -13.109375 C 33.546875 -9.804688 33.5625 -7.140625 33.59375 -5.109375 C 33.625 -3.085938 33.675781 -1.382812 33.75 0 L 32.546875 0 C 32.410156 -1.488281 32.175781 -2.421875 31.84375 -2.796875 C 31.519531 -3.179688 30.976562 -3.132812 30.21875 -2.65625 C 28.925781 -1.75 27.5625 -0.957031 26.125 -0.28125 C 24.6875 0.394531 22.84375 0.734375 20.59375 0.734375 C 16.914062 0.734375 13.695312 -0.0078125 10.9375 -1.5 C 8.1875 -3 6.046875 -5.148438 4.515625 -7.953125 C 2.992188 -10.765625 2.234375 -14.144531 2.234375 -18.09375 C 2.234375 -21.976562 3.019531 -25.375 4.59375 -28.28125 C 6.175781 -31.195312 8.34375 -33.46875 11.09375 -35.09375 C 13.851562 -36.726562 17.035156 -37.546875 20.640625 -37.546875 Z M 20.640625 -37.546875 "/></g></g></g><g fill="#ffa500" fill-opacity="1"><g transform="translate(285.828413, 160.827001)"><g><path d="M 23.8125 0 L 23.8125 -1.046875 C 24.925781 -1.109375 25.757812 -1.242188 26.3125 -1.453125 C 26.863281 -1.660156 27.234375 -2.078125 27.421875 -2.703125 C 27.617188 -3.328125 27.71875 -4.265625 27.71875 -5.515625 L 27.71875 -31.296875 C 27.71875 -32.585938 27.617188 -33.535156 27.421875 -34.140625 C 27.234375 -34.742188 26.851562 -35.15625 26.28125 -35.375 C 25.707031 -35.601562 24.882812 -35.738281 23.8125 -35.78125 L 23.8125 -36.8125 C 24.75 -36.78125 25.972656 -36.742188 27.484375 -36.703125 C 28.992188 -36.671875 30.492188 -36.65625 31.984375 -36.65625 C 33.578125 -36.65625 35.070312 -36.671875 36.46875 -36.703125 C 37.875 -36.742188 39.015625 -36.78125 39.890625 -36.8125 L 39.890625 -35.78125 C 38.773438 -35.738281 37.929688 -35.601562 37.359375 -35.375 C 36.785156 -35.15625 36.410156 -34.742188 36.234375 -34.140625 C 36.066406 -33.535156 35.984375 -32.585938 35.984375 -31.296875 L 35.984375 -5.515625 C 35.984375 -4.265625 36.078125 -3.328125 36.265625 -2.703125 C 36.460938 -2.078125 36.835938 -1.660156 37.390625 -1.453125 C 37.941406 -1.242188 38.773438 -1.109375 39.890625 -1.046875 L 39.890625 0 C 39.015625 -0.0703125 37.875 -0.113281 36.46875 -0.125 C 35.070312 -0.144531 33.578125 -0.15625 31.984375 -0.15625 C 30.492188 -0.15625 28.992188 -0.144531 27.484375 -0.125 C 25.972656 -0.113281 24.75 -0.0703125 23.8125 0 Z M 1.765625 0 L 1.765625 -1.046875 C 2.878906 -1.109375 3.710938 -1.242188 4.265625 -1.453125 C 4.816406 -1.660156 5.1875 -2.078125 5.375 -2.703125 C 5.570312 -3.328125 5.671875 -4.265625 5.671875 -5.515625 L 5.671875 -31.296875 C 5.671875 -32.585938 5.570312 -33.535156 5.375 -34.140625 C 5.1875 -34.742188 4.804688 -35.15625 4.234375 -35.375 C 3.660156 -35.601562 2.835938 -35.738281 1.765625 -35.78125 L 1.765625 -36.8125 C 2.671875 -36.78125 3.84375 -36.742188 5.28125 -36.703125 C 6.71875 -36.671875 8.285156 -36.65625 9.984375 -36.65625 C 11.441406 -36.65625 12.878906 -36.671875 14.296875 -36.703125 C 15.722656 -36.742188 16.90625 -36.78125 17.84375 -36.8125 L 17.84375 -35.78125 C 16.726562 -35.738281 15.882812 -35.601562 15.3125 -35.375 C 14.738281 -35.15625 14.363281 -34.742188 14.1875 -34.140625 C 14.019531 -33.535156 13.9375 -32.585938 13.9375 -31.296875 L 13.9375 -5.515625 C 13.9375 -4.265625 14.03125 -3.328125 14.21875 -2.703125 C 14.414062 -2.078125 14.789062 -1.660156 15.34375 -1.453125 C 15.894531 -1.242188 16.726562 -1.109375 17.84375 -1.046875 L 17.84375 0 C 16.90625 -0.0703125 15.722656 -0.113281 14.296875 -0.125 C 12.878906 -0.144531 11.441406 -0.15625 9.984375 -0.15625 C 8.285156 -0.15625 6.71875 -0.144531 5.28125 -0.125 C 3.84375 -0.113281 2.671875 -0.0703125 1.765625 0 Z M 10.5625 -17.984375 L 10.5625 -19.03125 L 31.09375 -19.03125 L 31.09375 -17.984375 Z M 10.5625 -17.984375 "/></g></g></g><g fill="#ffffff" fill-opacity="1"><g transform="translate(35.008464, 257.041243)"><g><path d="M 50.640625 -36.8125 L 50.640625 -35.78125 C 49.878906 -35.5 49.082031 -34.898438 48.25 -33.984375 C 47.425781 -33.066406 46.703125 -31.601562 46.078125 -29.59375 L 36.921875 0.109375 C 36.640625 0.0664062 36.34375 0.046875 36.03125 0.046875 C 35.71875 0.046875 35.40625 0.046875 35.09375 0.046875 C 34.78125 0.046875 34.46875 0.046875 34.15625 0.046875 C 33.851562 0.046875 33.5625 0.0664062 33.28125 0.109375 L 22.359375 -32.96875 C 22.015625 -34.039062 21.585938 -34.765625 21.078125 -35.140625 C 20.578125 -35.523438 20.050781 -35.738281 19.5 -35.78125 L 19.5 -36.8125 C 20.46875 -36.78125 21.617188 -36.742188 22.953125 -36.703125 C 24.285156 -36.671875 25.613281 -36.65625 26.9375 -36.65625 C 28.457031 -36.65625 29.882812 -36.671875 31.21875 -36.703125 C 32.5625 -36.742188 33.628906 -36.78125 34.421875 -36.8125 L 34.421875 -35.78125 C 33.378906 -35.738281 32.554688 -35.613281 31.953125 -35.40625 C 31.347656 -35.195312 31 -34.796875 30.90625 -34.203125 C 30.820312 -33.617188 30.988281 -32.6875 31.40625 -31.40625 L 38.796875 -8.84375 L 37.59375 -6.703125 L 43.46875 -25.375 C 44.300781 -28.007812 44.695312 -30.070312 44.65625 -31.5625 C 44.625 -33.050781 44.226562 -34.113281 43.46875 -34.75 C 42.707031 -35.394531 41.617188 -35.738281 40.203125 -35.78125 L 40.203125 -36.8125 C 41.378906 -36.78125 42.484375 -36.742188 43.515625 -36.703125 C 44.554688 -36.671875 45.597656 -36.65625 46.640625 -36.65625 C 47.441406 -36.65625 48.179688 -36.671875 48.859375 -36.703125 C 49.535156 -36.742188 50.128906 -36.78125 50.640625 -36.8125 Z M 13.515625 -36.8125 L 13.515625 -35.78125 C 12.828125 -35.675781 12.34375 -35.421875 12.0625 -35.015625 C 11.78125 -34.617188 11.664062 -34.097656 11.71875 -33.453125 C 11.769531 -32.816406 11.921875 -32.132812 12.171875 -31.40625 L 20.125 -8.3125 L 18.71875 -6.453125 L 25.375 -25.890625 L 26.109375 -24.484375 L 17.9375 0.109375 C 17.664062 0.0664062 17.375 0.046875 17.0625 0.046875 C 16.75 0.046875 16.4375 0.046875 16.125 0.046875 C 15.8125 0.046875 15.5 0.046875 15.1875 0.046875 C 14.875 0.046875 14.578125 0.0664062 14.296875 0.109375 L 2.65625 -32.453125 C 2.195312 -33.734375 1.664062 -34.597656 1.0625 -35.046875 C 0.457031 -35.492188 -0.101562 -35.738281 -0.625 -35.78125 L -0.625 -36.8125 C 0.414062 -36.78125 1.644531 -36.742188 3.0625 -36.703125 C 4.488281 -36.671875 5.84375 -36.65625 7.125 -36.65625 C 8.507812 -36.65625 9.75 -36.671875 10.84375 -36.703125 C 11.9375 -36.742188 12.828125 -36.78125 13.515625 -36.8125 Z M 13.515625 -36.8125 "/></g></g></g><g fill="#ffffff" fill-opacity="1"><g transform="translate(108.232176, 257.041243)"><g><path d="M 8.421875 0.359375 C 6.859375 0.359375 5.554688 0.0664062 4.515625 -0.515625 C 3.484375 -1.109375 2.722656 -1.898438 2.234375 -2.890625 C 1.753906 -3.878906 1.515625 -4.960938 1.515625 -6.140625 C 1.515625 -7.628906 1.847656 -8.84375 2.515625 -9.78125 C 3.191406 -10.71875 4.066406 -11.476562 5.140625 -12.0625 C 6.222656 -12.65625 7.359375 -13.140625 8.546875 -13.515625 C 9.742188 -13.898438 10.890625 -14.273438 11.984375 -14.640625 C 13.078125 -15.003906 13.960938 -15.4375 14.640625 -15.9375 C 15.316406 -16.4375 15.65625 -17.085938 15.65625 -17.890625 L 15.65625 -21.9375 C 15.65625 -22.84375 15.503906 -23.648438 15.203125 -24.359375 C 14.910156 -25.066406 14.460938 -25.613281 13.859375 -26 C 13.253906 -26.382812 12.460938 -26.578125 11.484375 -26.578125 C 10.796875 -26.578125 10.101562 -26.476562 9.40625 -26.28125 C 8.71875 -26.09375 8.148438 -25.773438 7.703125 -25.328125 C 8.671875 -24.972656 9.421875 -24.441406 9.953125 -23.734375 C 10.492188 -23.023438 10.765625 -22.21875 10.765625 -21.3125 C 10.765625 -20.132812 10.351562 -19.195312 9.53125 -18.5 C 8.71875 -17.8125 7.757812 -17.46875 6.65625 -17.46875 C 5.40625 -17.46875 4.457031 -17.859375 3.8125 -18.640625 C 3.175781 -19.421875 2.859375 -20.363281 2.859375 -21.46875 C 2.859375 -22.476562 3.109375 -23.3125 3.609375 -23.96875 C 4.117188 -24.625 4.820312 -25.25 5.71875 -25.84375 C 6.6875 -26.394531 7.851562 -26.828125 9.21875 -27.140625 C 10.59375 -27.453125 12.078125 -27.609375 13.671875 -27.609375 C 15.265625 -27.609375 16.703125 -27.441406 17.984375 -27.109375 C 19.273438 -26.785156 20.351562 -26.191406 21.21875 -25.328125 C 22.007812 -24.523438 22.523438 -23.539062 22.765625 -22.375 C 23.015625 -21.21875 23.140625 -19.753906 23.140625 -17.984375 L 23.140625 -3.84375 C 23.140625 -2.976562 23.222656 -2.378906 23.390625 -2.046875 C 23.566406 -1.722656 23.863281 -1.5625 24.28125 -1.5625 C 24.59375 -1.5625 24.894531 -1.644531 25.1875 -1.8125 C 25.488281 -1.988281 25.8125 -2.195312 26.15625 -2.4375 L 26.671875 -1.5625 C 25.941406 -0.9375 25.097656 -0.457031 24.140625 -0.125 C 23.191406 0.195312 22.128906 0.359375 20.953125 0.359375 C 19.671875 0.359375 18.648438 0.175781 17.890625 -0.1875 C 17.128906 -0.550781 16.582031 -1.039062 16.25 -1.65625 C 15.914062 -2.28125 15.75 -3.007812 15.75 -3.84375 C 14.925781 -2.53125 13.921875 -1.5 12.734375 -0.75 C 11.554688 -0.0078125 10.117188 0.359375 8.421875 0.359375 Z M 12.109375 -2.96875 C 12.804688 -2.96875 13.441406 -3.128906 14.015625 -3.453125 C 14.585938 -3.785156 15.132812 -4.332031 15.65625 -5.09375 L 15.65625 -15.75 C 15.34375 -15.226562 14.90625 -14.757812 14.34375 -14.34375 C 13.789062 -13.9375 13.203125 -13.515625 12.578125 -13.078125 C 11.953125 -12.640625 11.351562 -12.160156 10.78125 -11.640625 C 10.21875 -11.128906 9.757812 -10.488281 9.40625 -9.71875 C 9.0625 -8.957031 8.890625 -8.039062 8.890625 -6.96875 C 8.890625 -5.613281 9.179688 -4.609375 9.765625 -3.953125 C 10.359375 -3.296875 11.140625 -2.96875 12.109375 -2.96875 Z M 12.109375 -2.96875 "/></g></g></g><g fill="#ffffff" fill-opacity="1"><g transform="translate(175.012272, 257.041243)"><g><path d="M 11.859375 -40.71875 L 11.859375 -4.84375 C 11.859375 -3.382812 12.109375 -2.394531 12.609375 -1.875 C 13.109375 -1.351562 13.96875 -1.09375 15.1875 -1.09375 L 15.1875 0 C 14.53125 -0.03125 13.539062 -0.0703125 12.21875 -0.125 C 10.90625 -0.175781 9.570312 -0.203125 8.21875 -0.203125 C 6.863281 -0.203125 5.5 -0.175781 4.125 -0.125 C 2.757812 -0.0703125 1.734375 -0.03125 1.046875 0 L 1.046875 -1.09375 C 2.253906 -1.09375 3.109375 -1.351562 3.609375 -1.875 C 4.117188 -2.394531 4.375 -3.382812 4.375 -4.84375 L 4.375 -34.46875 C 4.375 -36.03125 4.140625 -37.179688 3.671875 -37.921875 C 3.203125 -38.671875 2.328125 -39.046875 1.046875 -39.046875 L 1.046875 -40.140625 C 2.148438 -40.035156 3.222656 -39.984375 4.265625 -39.984375 C 5.679688 -39.984375 7.03125 -40.046875 8.3125 -40.171875 C 9.601562 -40.296875 10.785156 -40.476562 11.859375 -40.71875 Z M 11.859375 -40.71875 "/></g></g></g><g fill="#ffffff" fill-opacity="1"><g transform="translate(236.735101, 257.041243)"><g><path d="M 11.859375 -40.71875 L 11.859375 -4.84375 C 11.859375 -3.382812 12.109375 -2.394531 12.609375 -1.875 C 13.109375 -1.351562 13.96875 -1.09375 15.1875 -1.09375 L 15.1875 0 C 14.53125 -0.03125 13.539062 -0.0703125 12.21875 -0.125 C 10.90625 -0.175781 9.570312 -0.203125 8.21875 -0.203125 C 6.863281 -0.203125 5.5 -0.175781 4.125 -0.125 C 2.757812 -0.0703125 1.734375 -0.03125 1.046875 0 L 1.046875 -1.09375 C 2.253906 -1.09375 3.109375 -1.351562 3.609375 -1.875 C 4.117188 -2.394531 4.375 -3.382812 4.375 -4.84375 L 4.375 -34.46875 C 4.375 -36.03125 4.140625 -37.179688 3.671875 -37.921875 C 3.203125 -38.671875 2.328125 -39.046875 1.046875 -39.046875 L 1.046875 -40.140625 C 2.148438 -40.035156 3.222656 -39.984375 4.265625 -39.984375 C 5.679688 -39.984375 7.03125 -40.046875 8.3125 -40.171875 C 9.601562 -40.296875 10.785156 -40.476562 11.859375 -40.71875 Z M 11.859375 -40.71875 "/></g></g></g></svg>